<svg width="50" height="50" viewBox="0 0 50 50" fill="none" xmlns="http://www.w3.org/2000/svg">
<path fill-rule="evenodd" clip-rule="evenodd" d="M17 37.162V13.9046C17 13.2623 17.1776 12.7466 17.9768 12.2641C18.7761 11.7815 19.6641 12.0711 20.0193 12.2641C20.3745 12.4571 38.9344 23.555 39.2896 23.8445C39.6448 24.134 40 24.52 40 25.5816C40 26.6431 39.6448 26.9326 39.2896 27.3187C38.9344 27.7047 21.1737 38.2236 20.2857 38.7061C19.3977 39.1886 18.4208 38.9956 17.9768 38.7061C17.5328 38.4166 17 38.0306 17 37.162ZM19.5753 15.2557V35.811L36.7143 25.5816L19.5753 15.2557Z" fill="black"/>
<path d="M17 37.162C17 36.2935 17 14.5469 17 13.9046M17 37.162C17 38.0306 17.5328 38.4166 17.9768 38.7061C18.4208 38.9956 19.3977 39.1886 20.2857 38.7061C21.1737 38.2236 38.9344 27.7047 39.2896 27.3187C39.6448 26.9326 40 26.6431 40 25.5816C40 24.52 39.6448 24.134 39.2896 23.8445C38.9344 23.555 20.3745 12.4571 20.0193 12.2641C19.6641 12.0711 18.7761 11.7815 17.9768 12.2641C17.1776 12.7466 17 13.2623 17 13.9046M17 37.162V13.9046M19.5753 35.811V15.2557L36.7143 25.5816L19.5753 35.811Z" stroke="black"/>
</svg>
