<svg width="54" height="54" viewBox="0 0 54 54" fill="none" xmlns="http://www.w3.org/2000/svg">
<path d="M22.275 42.75C18.6375 42.75 15.5156 41.5688 12.9094 39.2063C10.3031 36.8438 9 33.9 9 30.375C9 26.85 10.3031 23.9063 12.9094 21.5438C15.5156 19.1813 18.6375 18 22.275 18H36.45L30.6 12.15L33.75 9L45 20.25L33.75 31.5L30.6 28.35L36.45 22.5H22.275C19.9125 22.5 17.8594 23.25 16.1156 24.75C14.3719 26.25 13.5 28.125 13.5 30.375C13.5 32.625 14.3719 34.5 16.1156 36C17.8594 37.5 19.9125 38.25 22.275 38.25H35.2002H38.25C38.25 40.0074 38.25 40.9926 38.25 42.75H35.2002H22.275Z" fill="black"/>
</svg>
