<svg width="54" height="54" viewBox="0 0 54 54" fill="none" xmlns="http://www.w3.org/2000/svg">
<path d="M15.75 42.75V38.25H31.725C34.0875 38.25 36.1406 37.5 37.8844 36C39.6281 34.5 40.5 32.625 40.5 30.375C40.5 28.125 39.6281 26.25 37.8844 24.75C36.1406 23.25 34.0875 22.5 31.725 22.5H17.55L23.4 28.35L20.25 31.5L9 20.25L20.25 9L23.4 12.15L17.55 18H31.725C35.3625 18 38.4844 19.1813 41.0906 21.5438C43.6969 23.9063 45 26.85 45 30.375C45 33.9 43.6969 36.8438 41.0906 39.2063C38.4844 41.5688 35.3625 42.75 31.725 42.75H15.75Z" fill="black"/>
</svg>
