<svg width="50" height="50" viewBox="0 0 50 50" fill="none" xmlns="http://www.w3.org/2000/svg">
<path d="M4.71875 29.8437H27.2188C27.2188 29.8437 24.0938 26.5625 23.7812 26.25C23.4688 25.9375 22.375 24.5313 23.7812 23.125C25.1875 21.7187 26.5938 22.9687 26.9062 23.2813C27.2188 23.5938 34.4062 30.625 34.4062 30.625C34.4062 30.625 35.0312 31.25 35.0312 32.0313C35.0312 32.8125 34.4062 33.4375 34.4062 33.4375C34.4062 33.4375 27.2188 40.7813 26.9062 41.0938C26.5938 41.4063 25.3438 42.3438 23.7812 40.7813C22.2188 39.2188 23.4688 38.125 23.7812 37.8125C24.0938 37.5 27.2188 34.2188 27.2188 34.2188H4.71875C4.71875 34.2188 3 33.9062 3 31.875C3 29.8437 4.71875 29.8437 4.71875 29.8437Z" fill="black"/>
<path fill-rule="evenodd" clip-rule="evenodd" d="M9.25 25H13.9375V6.09375C13.9375 5.15625 14.7188 4.6875 15.3438 4.6875H26.4375V13.75C26.4375 18.4375 30.5 20.3125 33 20.3125H42.0625V43.75C42.0625 44.5312 41.4375 45.3125 40.5 45.3125H15.2045C14.5625 45.3125 13.9545 44.8438 13.9545 44.0625V39.0625H9.25V44.2188C9.25 47.0312 11.9062 50 14.875 50H40.8125C43.1562 50 46.75 47.8125 46.75 43.9062V17.6562C46.75 16.25 46.125 15.1562 45.5 14.375C44.875 13.5938 33 1.875 32.0625 0.9375C31.125 0 29.0938 0 28.4688 0H15.0312C12.0625 0 9.25 2.65625 9.25 6.09375V25ZM40.1875 15.625H33C31.75 15.625 31.125 15 31.125 13.75V6.5625L40.1875 15.625Z" fill="black"/>
</svg>
