<svg width="50" height="50" viewBox="0 0 50 50" fill="none" xmlns="http://www.w3.org/2000/svg">
<path d="M12.1295 28.6116H26.9152C26.9152 28.6116 24.8616 26.4554 24.6562 26.25C24.4509 26.0446 23.7321 25.1205 24.6562 24.1964C25.5804 23.2723 26.5045 24.0938 26.7098 24.2991C26.9152 24.5045 31.6384 29.125 31.6384 29.125C31.6384 29.125 32.0491 29.5357 32.0491 30.0491C32.0491 30.5625 31.6384 30.9732 31.6384 30.9732C31.6384 30.9732 26.9152 35.7991 26.7098 36.0045C26.5045 36.2098 25.683 36.8259 24.6562 35.7991C23.6295 34.7723 24.4509 34.0536 24.6562 33.8482C24.8616 33.6429 26.9152 31.4866 26.9152 31.4866H12.1295C12.1295 31.4866 11 31.2813 11 29.9464C11 28.6116 12.1295 28.6116 12.1295 28.6116Z" fill="black"/>
<path fill-rule="evenodd" clip-rule="evenodd" d="M15.1071 25.4286H18.1875V13.0045C18.1875 12.3884 18.7009 12.0804 19.1116 12.0804H26.4018V18.0357C26.4018 21.1161 29.0714 22.3482 30.7143 22.3482H36.6696V37.75C36.6696 38.2634 36.2589 38.7768 35.6429 38.7768H19.0201C18.5982 38.7768 18.1987 38.4688 18.1987 37.9554V34.6696H15.1071V38.058C15.1071 39.9063 16.8527 41.8571 18.8036 41.8571H35.8482C37.3884 41.8571 39.75 40.4196 39.75 37.8527V20.6027C39.75 19.6786 39.3393 18.9598 38.9286 18.4464C38.5179 17.933 30.7143 10.2321 30.0982 9.61607C29.4821 9 28.1473 9 27.7366 9H18.9063C16.9554 9 15.1071 10.7455 15.1071 13.0045V25.4286ZM35.4375 19.2679H30.7143C29.8929 19.2679 29.4821 18.8571 29.4821 18.0357V13.3125L35.4375 19.2679Z" fill="black"/>
</svg>
