<svg width="28" height="28" viewBox="0 0 28 28" fill="none" xmlns="http://www.w3.org/2000/svg">
<path d="M20.9998 11.9C20.9998 13.9081 20.3479 15.7631 19.2498 17.2681L24.7886 22.8113C25.3354 23.3581 25.3354 24.2463 24.7886 24.7931C24.2417 25.34 23.3536 25.34 22.8067 24.7931L17.2679 19.25C15.7629 20.3481 13.9079 21 11.8998 21C6.87293 21 2.7998 16.9269 2.7998 11.9C2.7998 6.87313 6.87293 2.8 11.8998 2.8C16.9267 2.8 20.9998 6.87313 20.9998 11.9ZM11.8998 18.2C15.3779 18.2 18.1998 15.3781 18.1998 11.9C18.1998 8.42188 15.3779 5.6 11.8998 5.6C8.42168 5.6 5.5998 8.42188 5.5998 11.9C5.5998 15.3781 8.42168 18.2 11.8998 18.2Z" fill="black"/>
</svg>
