<svg width="21" height="21" viewBox="0 0 21 21" fill="none" xmlns="http://www.w3.org/2000/svg">
<path d="M7.72766 3.37313C8.41016 2.23125 9.86047 1.77188 11.0909 2.34938L11.3272 2.47406C12.4691 3.15985 12.9284 4.61016 12.3509 5.84063L11.8883 6.825H15.4878L15.7306 6.83813C16.9217 6.95953 17.8503 7.96688 17.8503 9.1875C17.8503 9.62063 17.7322 10.0209 17.5288 10.3688C17.7289 10.7166 17.847 11.1169 17.8503 11.55C17.8503 12.1505 17.6239 12.6919 17.2597 13.1086C17.3023 13.2825 17.3253 13.463 17.3253 13.65C17.3253 14.4736 16.902 15.1922 16.2688 15.6155C16.2064 16.7803 15.3041 17.722 14.1556 17.8369L13.9128 17.85H10.497C9.90641 17.85 9.31906 17.7384 8.77109 17.5252L8.53813 17.4267L8.51516 17.4169L8.29859 17.3119L8.27563 17.302L7.87531 17.0888C7.47172 16.8755 7.11078 16.6064 6.79578 16.298C6.66125 17.1806 5.9 17.8533 4.98125 17.8533H3.93125C2.91734 17.8533 2.09375 17.0297 2.09375 16.0158L2.10031 8.6625C2.10031 7.6486 2.92391 6.825 3.93781 6.825H4.98781C5.34219 6.825 5.67359 6.92672 5.95578 7.10391L7.59969 3.60938L7.61938 3.57L7.70797 3.40594L7.72766 3.37641V3.37313ZM3.93781 8.4C3.79344 8.4 3.67531 8.51813 3.67531 8.6625V16.0125C3.67531 16.1569 3.79344 16.275 3.93781 16.275H4.98781C5.13219 16.275 5.25031 16.1569 5.25031 16.0125V8.6625C5.25031 8.51813 5.13219 8.4 4.98781 8.4H3.93781ZM10.4216 3.77344C9.93594 3.54703 9.36172 3.72094 9.08609 4.16719L9.01391 4.29844L7.15016 8.26547C7.03531 8.51156 6.96969 8.77407 6.95328 9.04313L6.95 9.18094V12.8855L6.95656 13.1447C7.03531 14.2177 7.65875 15.1823 8.62016 15.6942L8.9975 15.8944L9.20422 15.9961C9.61109 16.1798 10.0508 16.275 10.497 16.275H13.9128L13.9916 16.2717C14.3886 16.2323 14.7003 15.8944 14.7003 15.4875L14.6938 15.4022C14.6905 15.3727 14.6872 15.3464 14.6806 15.3169C14.592 14.9198 14.8217 14.5228 15.2056 14.3981C15.5239 14.2964 15.7503 13.9978 15.7503 13.65C15.7503 13.5089 15.7142 13.3809 15.6486 13.2628C15.4419 12.8986 15.5567 12.4359 15.9111 12.2128C16.1342 12.0717 16.2786 11.8256 16.2786 11.55C16.2786 11.317 16.1769 11.107 16.0095 10.9594C15.8389 10.8084 15.7405 10.5952 15.7405 10.3688C15.7405 10.1423 15.8389 9.92906 16.0095 9.77813C16.1769 9.63047 16.2786 9.42047 16.2786 9.1875L16.2753 9.10875C16.2392 8.73797 15.9439 8.44266 15.5731 8.40657L15.4944 8.40328H10.6545C10.3855 8.40328 10.1361 8.26547 9.99172 8.03906C9.84734 7.81266 9.82766 7.52391 9.9425 7.2811L10.9269 5.17125C11.1566 4.67906 10.9728 4.09828 10.5167 3.82594L10.4216 3.77344Z" fill="black"/>
</svg>
